# xmcd
#
# Track frame offsets: 
#        150
#        17557
#        35557
#        51680
#        72162
#        91282
#        108840
#        127052
#        143282
#        158570
#        178705
#        196655
#        215502
#
# Disc length: 3224 seconds
#
# Revision: 2
# Processed by: cddbd v1.5.2PL0 Copyright (c) Steve Scherf et al.
# Submitted via: ExactAudioCopyFreeDBPlugin 1.0
#
DISCID=ae0c960d
DTITLE=Irma Thomas - My Heart's in Memphis:  The Songs of Dan Penn
DYEAR=2000
DGENRE=Soul
TTITLE0=My Heart's in Memphis
TTITLE1=Keep it Simple
TTITLE2=Not Enough Time to Change
TTITLE3=If You Want it, Come and Get It
TTITLE4=Blue in the Heart
TTITLE5=I'm Your Puppet
TTITLE6=Irma's Song
TTITLE7=Life at the End of the Road
TTITLE8=I Do
TTITLE9=Woman Left Lonely
TTITLE10=Hurtin' for Certain
TTITLE11=The Joke is on You
TTITLE12=Zero Will Power
EXTD=
EXTT0=
EXTT1=
EXTT2=
EXTT3=
EXTT4=
EXTT5=
EXTT6=
EXTT7=
EXTT8=
EXTT9=
EXTT10=
EXTT11=
EXTT12=
PLAYORDER=
